<svg xmlns="http://www.w3.org/2000/svg" viewBox="0 0 400 80" width="400" height="80">
  <defs>
    <radialGradient id="wmMonoGlow" cx="50%" cy="78%" r="35%">
      <stop offset="0%" stop-color="#ffffff" stop-opacity="0.6"/>
      <stop offset="100%" stop-color="#ffffff" stop-opacity="0"/>
    </radialGradient>
  </defs>

  <!-- LOTUS ICON (white mono) -->
  <g transform="translate(8, 6)">
    <path d="M30,54 Q20,52 10,47 Q6,44 10,41 Q15,39 22,41 Q26,46 30,54Z"
      fill="#ffffff" fill-opacity="0.08" stroke="#ffffff" stroke-width="0.9" stroke-opacity="0.5" stroke-linejoin="round"/>
    <path d="M30,54 Q40,52 50,47 Q54,44 50,41 Q45,39 38,41 Q34,46 30,54Z"
      fill="#ffffff" fill-opacity="0.08" stroke="#ffffff" stroke-width="0.9" stroke-opacity="0.5" stroke-linejoin="round"/>
    <path d="M30,54 Q24,48 19,38 Q17,32 20,29 Q24,29 27,34 Q29,42 30,54Z"
      fill="#ffffff" fill-opacity="0.1" stroke="#ffffff" stroke-width="0.9" stroke-opacity="0.6" stroke-linejoin="round"/>
    <path d="M30,54 Q36,48 41,38 Q43,32 40,29 Q36,29 33,34 Q31,42 30,54Z"
      fill="#ffffff" fill-opacity="0.1" stroke="#ffffff" stroke-width="0.9" stroke-opacity="0.6" stroke-linejoin="round"/>
    <path d="M30,54 Q27,46 26,37 Q26,30 30,22 Q34,30 34,37 Q33,46 30,54Z"
      fill="#ffffff" fill-opacity="0.12" stroke="#ffffff" stroke-width="1.1" stroke-opacity="0.8" stroke-linejoin="round"/>

    <circle cx="30" cy="24" r="1.5" fill="#ffffff" fill-opacity="0.8"/>
    <circle cx="19" cy="36" r="1.2" fill="#ffffff" fill-opacity="0.6"/>
    <circle cx="41" cy="36" r="1.2" fill="#ffffff" fill-opacity="0.6"/>

    <ellipse cx="30" cy="54" rx="14" ry="6" fill="url(#wmMonoGlow)"/>
    <circle cx="30" cy="53" r="2" fill="#ffffff" fill-opacity="0.8"/>
  </g>

  <!-- TEXT (all white) -->
  <g transform="translate(78, 0)">
    <text x="0" y="49" font-family="'Space Grotesk', 'Inter', 'Segoe UI', system-ui, sans-serif"
      font-weight="700" font-size="28" letter-spacing="0.15em"
      fill="#ffffff">PRAGYAN</text>
    <text x="215" y="49" font-family="'Space Grotesk', 'Inter', 'Segoe UI', system-ui, sans-serif"
      font-weight="700" font-size="28" letter-spacing="0.15em"
      fill="#ffffff" fill-opacity="0.8">AI</text>
  </g>
</svg>
