<svg xmlns="http://www.w3.org/2000/svg" viewBox="0 0 512 512" width="512" height="512">
  <defs>
    <radialGradient id="monoGlow" cx="50%" cy="72%" r="30%">
      <stop offset="0%" stop-color="#ffffff" stop-opacity="0.7"/>
      <stop offset="50%" stop-color="#ffffff" stop-opacity="0.15"/>
      <stop offset="100%" stop-color="#ffffff" stop-opacity="0"/>
    </radialGradient>
  </defs>

  <!-- Far-left base petal -->
  <path d="M256,350 Q210,345 150,330 Q100,315 65,298 Q55,290 65,280 Q80,268 110,260 Q155,250 200,258 Q230,300 256,350Z"
    fill="#ffffff" fill-opacity="0.06" stroke="#ffffff" stroke-width="1.5" stroke-opacity="0.5" stroke-linejoin="round"/>
  <!-- Far-right base petal -->
  <path d="M256,350 Q302,345 362,330 Q412,315 447,298 Q457,290 447,280 Q432,268 402,260 Q357,250 312,258 Q282,300 256,350Z"
    fill="#ffffff" fill-opacity="0.06" stroke="#ffffff" stroke-width="1.5" stroke-opacity="0.5" stroke-linejoin="round"/>
  <!-- Mid-left petal -->
  <path d="M256,350 Q225,320 185,270 Q160,235 148,205 Q145,190 155,182 Q170,178 188,188 Q210,205 235,240 Q248,290 256,350Z"
    fill="#ffffff" fill-opacity="0.08" stroke="#ffffff" stroke-width="1.5" stroke-opacity="0.6" stroke-linejoin="round"/>
  <!-- Mid-right petal -->
  <path d="M256,350 Q287,320 327,270 Q352,235 364,205 Q367,190 357,182 Q342,178 324,188 Q302,205 277,240 Q264,290 256,350Z"
    fill="#ffffff" fill-opacity="0.08" stroke="#ffffff" stroke-width="1.5" stroke-opacity="0.6" stroke-linejoin="round"/>
  <!-- Inner-left petal -->
  <path d="M256,350 Q238,310 215,250 Q200,210 198,178 Q198,160 208,150 Q220,148 232,160 Q244,180 250,215 Q254,275 256,350Z"
    fill="#ffffff" fill-opacity="0.1" stroke="#ffffff" stroke-width="1.5" stroke-opacity="0.7" stroke-linejoin="round"/>
  <!-- Inner-right petal -->
  <path d="M256,350 Q274,310 297,250 Q312,210 314,178 Q314,160 304,150 Q292,148 280,160 Q268,180 262,215 Q258,275 256,350Z"
    fill="#ffffff" fill-opacity="0.1" stroke="#ffffff" stroke-width="1.5" stroke-opacity="0.7" stroke-linejoin="round"/>
  <!-- Center petal -->
  <path d="M256,350 Q244,300 240,240 Q237,195 240,160 Q244,130 256,105 Q268,130 272,160 Q275,195 272,240 Q268,300 256,350Z"
    fill="#ffffff" fill-opacity="0.12" stroke="#ffffff" stroke-width="2" stroke-opacity="0.8" stroke-linejoin="round"/>
  <path d="M256,330 Q249,280 247,230 Q246,195 248,170 Q252,148 256,135 Q260,148 264,170 Q266,195 265,230 Q263,280 256,330Z"
    fill="none" stroke="#ffffff" stroke-width="0.7" stroke-opacity="0.3"/>

  <!-- Nodes -->
  <circle cx="256" cy="130" r="3.5" fill="#ffffff" fill-opacity="0.9"/>
  <circle cx="218" cy="210" r="3" fill="#ffffff" fill-opacity="0.7"/>
  <circle cx="294" cy="210" r="3" fill="#ffffff" fill-opacity="0.7"/>
  <circle cx="175" cy="225" r="3" fill="#ffffff" fill-opacity="0.6"/>
  <circle cx="337" cy="225" r="3" fill="#ffffff" fill-opacity="0.6"/>
  <circle cx="120" cy="300" r="2.5" fill="#ffffff" fill-opacity="0.5"/>
  <circle cx="392" cy="300" r="2.5" fill="#ffffff" fill-opacity="0.5"/>

  <!-- Connections -->
  <g fill="none" stroke="#ffffff" stroke-width="0.5" stroke-opacity="0.2" stroke-dasharray="3,4">
    <line x1="256" y1="130" x2="218" y2="210"/>
    <line x1="256" y1="130" x2="294" y2="210"/>
    <line x1="218" y1="210" x2="175" y2="225"/>
    <line x1="294" y1="210" x2="337" y2="225"/>
    <line x1="175" y1="225" x2="120" y2="300"/>
    <line x1="337" y1="225" x2="392" y2="300"/>
  </g>

  <!-- Center glow -->
  <ellipse cx="256" cy="350" rx="140" ry="65" fill="url(#monoGlow)"/>
  <circle cx="256" cy="345" r="5" fill="#ffffff" fill-opacity="0.8"/>
</svg>
